<svg width="153" height="256" viewBox="0 0 153 256" fill="none" xmlns="http://www.w3.org/2000/svg">
<path d="M107.728 21.803C107.728 33.8447 97.9665 43.606 85.9253 43.606C73.8835 43.606 64.1223 33.8442 64.1223 21.803C64.1223 9.76121 73.8841 0 85.9253 0C97.9671 0 107.728 9.7618 107.728 21.803Z" fill="#F2F2F2"/>
<path d="M52.8552 88.396C52.8552 88.396 35.0366 180.916 31.2002 187.177C27.9192 192.531 2.31596 234.539 2.31596 234.539C-3.14991 243.502 2.0297 249.909 7.82052 253.252C12.7503 256.098 23.3474 255.394 26.8514 249.417C26.8514 249.417 55.2576 205.212 58.3568 195.678C60.5025 189.077 65.4886 161.697 65.4886 161.697C65.4886 161.697 93.0902 190.165 96.1131 195.258C99.9234 201.679 107.02 246.439 107.02 246.439C108.717 254.403 116.313 257 124.22 255.668C130.465 254.616 136.996 250.391 135.547 242.663C135.547 242.663 129.236 190.768 124.22 182.252C118.235 172.09 86.0447 137.364 86.0447 137.364L95.2738 96.2513C95.2738 96.2513 101.198 108.26 105.342 113.451C110.056 119.356 139.742 136.525 139.742 136.525C142.465 138.351 148.63 137.345 151.069 132.749C153.027 129.06 152.934 123.085 148.552 120.164C148.552 120.164 124.087 104.805 118.347 100.027C111.963 94.7233 99.0475 59.3433 99.0475 59.3433C95.0415 53.8305 89.5618 47.7485 80.1694 47.597C70.7024 47.4441 65.9639 52.6594 61.7106 55.5675C61.7106 55.5675 25.4455 82.0584 21.857 87.4506C18.2468 92.875 11.7886 133.597 11.7886 133.597C10.7763 138.236 12.5886 141.968 18.0811 143.246C24.8018 144.809 29.619 140.624 30.2468 137.373C30.2468 137.373 34.3879 105.208 37.3786 100.456C40.8607 94.9222 52.8521 88.4032 52.8521 88.4032L52.8552 88.396Z" fill="#F2F2F2"/>
</svg>
